HIERARCHY
ROOT Hips
{
	OFFSET 0.000000 0.000000 0.000000 
	CHANNELS 6 Xposition Yposition Zposition Zrotation Yrotation Xrotation
	JOINT LeftUpLeg
	{
		OFFSET 1.363060 -1.794630 0.839290 
		CHANNELS 3 Zrotation Yrotation Xrotation
		JOINT LeftLeg
		{
			OFFSET 2.448110 -6.726130 0.000000 
			CHANNELS 3 Zrotation Yrotation Xrotation
			JOINT LeftFoot
			{
				OFFSET 2.562200 -7.039590 0.000000 
				CHANNELS 3 Zrotation Yrotation Xrotation
				JOINT LeftToeBase
				{
					OFFSET 0.157640 -0.433110 2.322550 
					CHANNELS 3 Zrotation Yrotation Xrotation
					End Site
					{
						OFFSET 0.000000 0.000000 0.000000 
					}
				}
			}
		}
	}
	JOINT RightUpLeg
	{
		OFFSET -1.305520 -1.794630 0.839290 
		CHANNELS 3 Zrotation Yrotation Xrotation
		JOINT RightLeg
		{
			OFFSET -2.542530 -6.985550 0.000000 
			CHANNELS 3 Zrotation Yrotation Xrotation
			JOINT RightFoot
			{
				OFFSET -2.568260 -7.056230 0.000000 
				CHANNELS 3 Zrotation Yrotation Xrotation
				JOINT RightToeBase
				{
					OFFSET -0.164730 -0.452590 2.363150 
					CHANNELS 3 Zrotation Yrotation Xrotation
					End Site
					{
						OFFSET 0.000000 0.000000 0.000000 
					}
				}
			}
		}
	}
	JOINT Spine
	{
		OFFSET 0.028270 2.035590 -0.193380 
		CHANNELS 3 Zrotation Yrotation Xrotation
		JOINT Spine1
		{
			OFFSET 0.056720 2.048850 -0.042750 
			CHANNELS 3 Zrotation Yrotation Xrotation
			JOINT Neck1
			{
				OFFSET -0.054170 1.746240 0.172020 
				CHANNELS 3 Zrotation Yrotation Xrotation
				JOINT Head
				{
					OFFSET 0.104070 1.761360 -0.123970 
					CHANNELS 3 Zrotation Yrotation Xrotation
					End Site
					{
						OFFSET 0.000000 0.000000 0.000000 
					}
				}
			}
			JOINT LeftArm
			{
				OFFSET 3.362410 1.200890 -0.311210 
				CHANNELS 3 Zrotation Yrotation Xrotation
				JOINT LeftForeArm
				{
					OFFSET 4.983000 -0.000000 -0.000000 
					CHANNELS 3 Zrotation Yrotation Xrotation
					JOINT LeftHand
					{
						OFFSET 3.483560 -0.000000 -0.000000 
						CHANNELS 3 Zrotation Yrotation Xrotation
						JOINT LeftHandIndex1
						{
							OFFSET 0.715260 -0.000000 -0.000000 
							CHANNELS 3 Zrotation Yrotation Xrotation
							End Site
							{
								OFFSET 0.000000 0.000000 0.000000 
							}
						}
					}
				}
			}
			JOINT RightArm
			{
				OFFSET -3.136600 1.374050 -0.404650 
				CHANNELS 3 Zrotation Yrotation Xrotation
				JOINT RightForeArm
				{
					OFFSET -5.241900 -0.000000 -0.000000 
					CHANNELS 3 Zrotation Yrotation Xrotation
					JOINT RightHand
					{
						OFFSET -3.444170 -0.000000 -0.000000 
						CHANNELS 3 Zrotation Yrotation Xrotation
						JOINT RightHandIndex1
						{
							OFFSET -0.622530 -0.000000 -0.000000 
							CHANNELS 3 Zrotation Yrotation Xrotation
							End Site
							{
								OFFSET 0.000000 0.000000 0.000000 
							}
						}
					}
				}
			}
		}
	}
}
MOTION
Frames: 17
Frame Time: 0.041667
-0.616419 18.328349 5.574879 -2.711899 -0.781488 -2.873779 -11.079235 -8.319389 -3.849929 1.182489 7.418624 24.288271 -0.522732 5.757320 -13.306093 8.388800 -16.397900 -53.951200 2.482260 2.051860 -1.912404 0.137416 0.759354 1.464971 0.328444 -1.055130 6.409195 0.000000 0.000000 0.000000 -10.054616 4.296460 26.353885 1.214059 2.207742 -15.198175 -3.749801 2.728105 41.502834 -1.114400 1.283200 14.211500 -93.162991 -6.346847 52.032738 119.157003 -53.165554 -84.005154 -0.581230 0.539071 -75.441104 -7.125000 0.000000 0.000000 72.804531 18.834036 65.871734 -121.028516 49.716391 -84.260492 1.622676 0.223390 16.751758 7.125000 0.000000 0.000000 
-0.617892 18.328938 5.570361 -2.904632 -0.799453 -3.009628 -11.016212 -8.417183 -3.783611 1.189631 7.389961 24.302009 -0.537439 5.821517 -13.388809 8.372600 -16.386600 -53.893900 2.489330 2.054115 -1.903092 0.134451 0.765222 1.464890 0.329649 -1.051777 6.415708 0.000000 0.000000 0.000000 -8.683390 4.028605 27.630256 1.061890 2.162912 -14.953060 -4.024954 2.943476 40.823462 -1.152200 1.310100 14.131600 -93.413194 -6.880804 51.585571 118.692448 -53.289331 -83.558667 -0.576885 0.550179 -75.739018 -7.125000 0.000000 0.000000 72.431471 19.681601 66.012939 -120.982568 49.739440 -84.193479 1.610378 0.226559 16.924406 7.125000 0.000000 0.000000 
-0.618678 18.329429 5.566433 -2.891228 -0.806206 -3.025554 -11.056688 -8.457851 -3.763761 1.189146 7.387966 24.305477 -0.543614 5.853303 -13.419588 8.366900 -16.382600 -53.873800 2.491104 2.053687 -1.902846 0.134118 0.764955 1.464542 0.329477 -1.052332 6.416118 0.000000 0.000000 0.000000 -8.496364 3.983212 27.696041 1.064451 2.159841 -15.006710 -4.175890 3.002665 40.564118 -1.188500 1.311100 14.038100 -93.438269 -6.778070 51.333647 118.459673 -53.351210 -83.336551 -0.573086 0.561003 -76.210753 -7.125000 0.000000 0.000000 72.534957 19.836011 65.846261 -121.309574 49.647703 -84.503258 1.574474 0.247060 16.385592 7.125000 0.000000 0.000000 
-0.618187 18.329528 5.563191 -2.833415 -0.775854 -3.046012 -11.127596 -8.420921 -3.769715 1.190386 7.385225 24.305674 -0.546416 5.848722 -13.370894 8.386300 -16.396100 -53.942400 2.491202 2.053881 -1.902075 0.133984 0.765423 1.464575 0.329523 -1.052007 6.416507 0.000000 0.000000 0.000000 -8.451130 3.943938 27.745934 1.093860 2.149803 -15.050601 -4.348102 3.061690 40.301166 -1.240900 1.314500 13.947900 -93.414445 -6.614964 51.218603 118.505923 -53.337986 -83.378508 -0.572160 0.562465 -76.308195 -7.125000 0.000000 0.000000 72.770083 19.945912 65.567620 -121.738861 49.519203 -84.913065 1.539863 0.266689 15.586955 7.125000 0.000000 0.000000 
-0.617598 18.330019 5.559950 -2.861112 -0.753087 -3.044138 -11.101694 -8.355505 -3.823844 1.193458 7.382636 24.302988 -0.535830 5.785837 -13.303009 8.394600 -16.402000 -53.972000 2.492057 2.054141 -1.901059 0.133629 0.766011 1.464648 0.329653 -1.051648 6.417171 0.000000 0.000000 0.000000 -8.295551 3.892433 27.822482 1.058284 2.132536 -15.082966 -4.375896 3.032555 40.091665 -1.255000 1.296700 13.871200 -93.371405 -6.475646 51.231139 118.731378 -53.277041 -83.588425 -0.573623 0.559157 -76.229922 -7.125000 0.000000 0.000000 73.017478 20.001062 65.277237 -122.337381 49.340703 -85.510737 1.533787 0.298716 15.147820 7.125000 0.000000 0.000000 
-0.617892 18.330510 5.557495 -2.886744 -0.744808 -3.028498 -11.053189 -8.330005 -3.879988 1.196056 7.385661 24.306143 -0.522315 5.721185 -13.261906 8.383300 -16.394100 -53.932000 2.490685 2.054996 -1.899647 0.133612 0.767226 1.465194 0.330079 -1.050383 6.417572 0.000000 0.000000 0.000000 -8.334113 3.888406 27.835224 1.026307 2.121915 -15.114361 -4.254166 2.936710 39.863966 -1.229700 1.271300 13.771400 -93.306073 -6.405815 51.284181 118.938186 -53.220878 -83.778771 -0.575309 0.558575 -76.183170 -7.125000 0.000000 0.000000 73.275870 19.902098 64.891263 -123.197053 49.076761 -86.386524 1.553789 0.338245 15.085360 7.125000 0.000000 0.000000 
-0.617205 18.330706 5.556021 -2.843165 -0.737808 -3.003354 -11.072190 -8.427999 -3.881506 1.192872 7.393695 24.312935 -0.528750 5.768753 -13.326392 8.360200 -16.377900 -53.849900 2.486321 2.056493 -1.898026 0.134121 0.769065 1.466246 0.330800 -1.048119 6.417490 0.000000 0.000000 0.000000 -8.661225 3.955302 27.770470 1.035456 2.128819 -15.143286 -3.972991 2.756004 39.629092 -1.165500 1.230500 13.653800 -93.252417 -6.392058 51.388451 119.065615 -53.185430 -83.892533 -0.575531 0.558710 -76.292926 -7.125000 0.000000 0.000000 73.507371 19.603863 64.429897 -124.330463 48.713370 -87.539006 1.587077 0.394166 14.919290 7.125000 0.000000 0.000000 
-0.615437 18.330903 5.555236 -2.846064 -0.735367 -2.958993 -11.076467 -8.559078 -3.885725 1.189016 7.398864 24.320033 -0.540815 5.845716 -13.422595 8.342000 -16.365100 -53.785300 2.485329 2.056772 -1.897480 0.134238 0.769486 1.466492 0.331088 -1.047597 6.417497 0.000000 0.000000 0.000000 -8.715881 3.992447 27.763224 1.000453 2.144095 -15.166932 -3.550516 2.491750 39.488304 -1.050100 1.159200 13.564700 -93.284430 -6.429484 51.507744 119.006644 -53.200949 -83.832820 -0.576871 0.560023 -76.365922 -7.125000 0.000000 0.000000 73.592458 19.220119 63.958716 -125.672159 48.268293 -88.886459 1.613255 0.475699 14.560324 7.125000 0.000000 0.000000 
-0.613964 18.331885 5.554745 -2.892742 -0.720417 -2.913016 -11.043419 -8.620933 -3.932730 1.189925 7.401251 24.331109 -0.541141 5.857453 -13.460705 8.341400 -16.364700 -53.783100 2.486574 2.056425 -1.896974 0.133987 0.769410 1.466234 0.331177 -1.047912 6.417914 0.000000 0.000000 0.000000 -8.545881 3.988184 27.860624 0.946155 2.158508 -15.162308 -3.282112 2.287943 39.230686 -0.967200 1.084100 13.443500 -93.326515 -6.533536 51.574030 118.791712 -53.258489 -83.631185 -0.578483 0.560949 -76.405709 -7.125000 0.000000 0.000000 73.561953 18.830362 63.486253 -127.045322 47.789446 -90.246732 1.633222 0.562085 14.389430 7.125000 0.000000 0.000000 
-0.613669 18.333554 5.553075 -2.924478 -0.676935 -2.892260 -11.011572 -8.663513 -3.967579 1.193121 7.402775 24.341956 -0.531595 5.820819 -13.465258 8.333300 -16.359000 -53.754500 2.486662 2.056312 -1.895672 0.133870 0.769849 1.466130 0.331414 -1.047687 6.418425 0.000000 0.000000 0.000000 -8.453041 3.975312 27.964786 0.931808 2.166897 -15.165675 -3.296358 2.173516 38.697588 -0.969000 1.009400 13.219800 -93.278215 -6.649718 51.553927 118.586374 -53.314592 -83.440375 -0.576237 0.559246 -76.560010 -7.125000 0.000000 0.000000 73.434059 18.394880 63.099894 -128.324223 47.317474 -91.492612 1.639192 0.644483 14.233733 7.125000 0.000000 0.000000 
-0.613374 18.334831 5.550718 -2.902280 -0.603509 -2.904186 -11.028952 -8.779696 -3.936821 1.193856 7.400038 24.341876 -0.519630 5.778838 -13.483356 8.293100 -16.330600 -53.611600 2.484480 2.056852 -1.893102 0.134008 0.771343 1.466439 0.331962 -1.046301 6.419056 0.000000 0.000000 0.000000 -8.526842 3.962203 28.076946 0.968920 2.166640 -15.192307 -3.228653 1.975464 38.065631 -0.957300 0.907100 12.959800 -93.115947 -6.798191 51.463874 118.314359 -53.389544 -83.188964 -0.571765 0.559032 -76.751796 -7.125000 0.000000 0.000000 73.084896 17.901230 62.798610 -129.521839 46.856099 -92.635984 1.609714 0.729117 13.546640 7.125000 0.000000 0.000000 
-0.612785 18.335224 5.547378 -2.785686 -0.478572 -2.924895 -11.121212 -8.903271 -3.902150 1.192208 7.395062 24.330553 -0.508269 5.736136 -13.483709 8.265300 -16.311000 -53.512700 2.479345 2.058161 -1.889703 0.134590 0.773818 1.467262 0.332831 -1.043672 6.419498 0.000000 0.000000 0.000000 -8.880731 3.966838 28.145898 1.073291 2.161537 -15.237193 -2.877483 1.641927 37.486966 -0.872100 0.780400 12.724700 -92.807393 -7.036349 51.369679 117.832392 -53.517104 -82.744994 -0.566357 0.560273 -76.948922 -7.125000 0.000000 0.000000 72.652393 17.205576 62.564618 -130.563311 46.430291 -93.615724 1.558343 0.804968 12.462793 7.125000 0.000000 0.000000 
-0.613767 18.335126 5.542074 -2.492513 -0.360982 -2.820553 -11.219159 -8.882971 -3.995240 1.182326 7.423133 24.308351 -0.503748 5.705826 -13.379410 8.297000 -16.333400 -53.625500 2.461956 2.060077 -1.890679 0.138224 0.774679 1.469868 0.333799 -1.040036 6.414795 0.000000 0.000000 0.000000 -10.780921 4.273290 27.056539 1.322612 2.198398 -15.526038 -2.193042 1.008901 37.214075 -0.756300 0.587800 12.461800 -92.068241 -6.884753 51.503517 117.218268 -53.671069 -82.186609 -0.558236 0.562406 -77.272683 -7.125000 0.000000 0.000000 72.608030 15.700542 62.443858 -131.405429 46.048325 -94.405148 1.505666 0.880237 11.282191 7.125000 0.000000 0.000000 
-0.616223 18.335126 5.534904 -2.366512 -0.256266 -2.849303 -11.210145 -8.848653 -4.047322 1.181767 7.434834 24.304818 -0.508154 5.693366 -13.255547 8.338400 -16.362600 -53.772600 2.446677 2.065759 -1.884266 0.139873 0.781883 1.473580 0.336366 -1.031549 6.415058 0.000000 0.000000 0.000000 -11.889229 4.451672 26.934008 1.422769 2.211735 -15.573417 -1.657892 0.457469 36.202479 -0.674800 0.391600 12.073200 -91.315474 -7.198481 51.504666 116.429195 -53.858934 -81.450981 -0.550657 0.571086 -77.909405 -7.125000 0.000000 0.000000 72.387285 14.522367 62.347171 -131.958864 45.769393 -94.915256 1.440381 0.942335 9.821540 7.125000 0.000000 0.000000 
-0.618285 18.335519 5.524984 -2.372497 -0.135120 -3.011248 -11.143347 -8.872402 -4.029302 1.190556 7.429111 24.322860 -0.509756 5.667382 -13.162001 8.352400 -16.372500 -53.822400 2.433745 2.075240 -1.869552 0.139410 0.795794 1.478406 0.340624 -1.017981 6.420643 0.000000 0.000000 0.000000 -12.213063 4.511683 27.838905 1.368194 2.190204 -15.378730 -1.139337 0.002235 34.534374 -0.574700 0.213400 11.605400 -90.606836 -8.080709 51.316914 115.327689 -54.109974 -80.408032 -0.546226 0.588626 -78.691001 -7.125000 0.000000 0.000000 71.912862 13.630340 62.108258 -132.237243 45.597462 -95.168872 1.340295 0.963833 8.316178 7.125000 0.000000 0.000000 
-0.620642 18.335224 5.512412 -2.474932 0.062586 -3.291621 -11.075524 -8.807748 -4.007517 1.214324 7.406949 24.371023 -0.502800 5.568772 -12.978231 8.397200 -16.403800 -53.981200 2.431118 2.083602 -1.855628 0.136874 0.808846 1.481575 0.344215 -1.006855 6.428741 0.000000 0.000000 0.000000 -11.463690 4.367560 29.494997 1.228491 2.152686 -15.001345 -0.636599 -0.378317 32.429511 -0.436300 0.036100 11.090300 -89.981879 -9.641724 51.116530 114.050475 -54.392991 -79.192891 -0.545141 0.607982 -79.237522 -7.125000 0.000000 0.000000 71.166188 12.833223 61.849050 -132.278797 45.527064 -95.208967 1.232405 0.972032 6.744230 7.125000 0.000000 0.000000 
-0.624768 18.334340 5.499055 -2.258367 0.184201 -3.283812 -11.062806 -8.674689 -4.135414 1.219034 7.453490 24.408443 -0.490996 5.482353 -12.773015 8.450000 -16.440400 -54.167700 2.410843 2.089591 -1.850958 0.139847 0.815226 1.486319 0.347006 -0.997875 6.426569 0.000000 0.000000 0.000000 -13.322577 4.759631 28.655615 1.349094 2.227816 -15.350885 0.589887 -1.270838 31.309385 -0.184000 -0.255300 10.620000 -88.650047 -10.537717 51.676346 113.427945 -54.528316 -78.616730 -0.539750 0.607366 -79.691133 -7.125000 0.000000 0.000000 71.115529 10.448313 61.596998 -132.002137 45.555052 -94.985412 1.140883 0.973149 5.574674 7.125000 0.000000 0.000000 
